<?xml version="1.0" encoding="utf-8"?>
<!-- Generator: Adobe Illustrator 18.1.1, SVG Export Plug-In . SVG Version: 6.00 Build 0)  -->
<svg version="1.1" id="Layer_1" xmlns="http://www.w3.org/2000/svg" xmlns:xlink="http://www.w3.org/1999/xlink" x="0px" y="0px"
	 viewBox="0 0 53 40.7" enable-background="new 0 0 53 40.7" xml:space="preserve">
<g>
	<g>
		<path fill="#721A81" d="M0,24.7h3.5c0-3.9,3.2-7.1,7.1-7.1s7.1,3.2,7.1,7.1c0,2.8,1.3,5.2,3.3,6.9c-3.1,1.9-5.1,5.2-5.1,9h3.5
			c0-3.9,3.2-7.1,7.1-7.1s7.1,3.2,7.1,7.1h3.5c0-3.8-2-7.2-5.1-9c2-1.6,3.3-4.1,3.3-6.9c0-3.9,3.2-7.1,7.1-7.1s7.1,3.2,7.1,7.1H53
			c0-3.8-2-7.2-5.1-9c2-1.6,3.3-4.1,3.3-6.9c0-4.9-4-8.8-8.8-8.8s-8.8,4-8.8,8.8c0,2.8,1.3,5.2,3.3,6.9c-1.4,0.9-2.7,2.1-3.5,3.5
			c-1.6-2-4.1-3.3-6.9-3.3s-5.2,1.3-6.9,3.3c-0.9-1.4-2.1-2.7-3.5-3.5c2-1.6,3.3-4.1,3.3-6.9c0-4.9-4-8.8-8.8-8.8S1.8,4,1.8,8.8
			c0,2.8,1.3,5.2,3.3,6.9C2,17.6,0,20.9,0,24.7z M37.1,8.8c0-2.9,2.4-5.3,5.3-5.3c2.9,0,5.3,2.4,5.3,5.3s-2.4,5.3-5.3,5.3
			C39.5,14.1,37.1,11.8,37.1,8.8z M26.5,19.4c2.9,0,5.3,2.4,5.3,5.3s-2.4,5.3-5.3,5.3s-5.3-2.4-5.3-5.3S23.6,19.4,26.5,19.4z
			 M5.3,8.8c0-2.9,2.4-5.3,5.3-5.3s5.3,2.4,5.3,5.3s-2.4,5.3-5.3,5.3S5.3,11.8,5.3,8.8z"/>
	</g>
</g>
</svg>
