<?xml version="1.0" encoding="utf-8"?>
<!-- Generator: Adobe Illustrator 18.1.1, SVG Export Plug-In . SVG Version: 6.00 Build 0)  -->
<svg version="1.1" id="Layer_1" xmlns="http://www.w3.org/2000/svg" xmlns:xlink="http://www.w3.org/1999/xlink" x="0px" y="0px"
	 viewBox="0 0 60.5 41.6" enable-background="new 0 0 60.5 41.6" xml:space="preserve">
<g>
	<path fill="#71AFCF" d="M13.2,41.6h31.2c8.9,0,16.1-7.2,16.1-16.1c0-8.5-6.6-15.5-15-16C42.6,3.7,36.8,0,30.2,0
		c-8.7,0-16,6.6-16.9,15.1c0,0-0.1,0-0.1,0C5.9,15.1,0,21.1,0,28.4S5.9,41.6,13.2,41.6z M13.2,18.9c0.5,0,1,0,1.6,0.1l2.2,0.2V17
		C17,9.7,23,3.8,30.2,3.8c5.4,0,10.2,3.2,12.3,8.3l0.6,1.2h1.3c6.8,0,12.3,5.5,12.3,12.3s-5.5,12.3-12.3,12.3H13.2
		c-5.2,0-9.5-4.2-9.5-9.5S8,18.9,13.2,18.9z"/>
	<path fill="#71AFCF" d="M49.8,26.7v-1.6L49.5,25l-1.7-0.6l-0.5-1.1l0.9-1.9l-1.1-1.1l-0.2,0.1l-1.6,0.8l-1.1-0.5l-0.7-2h-1.6
		L41.7,19l-0.6,1.7L40,21.2l-1.9-0.9L37,21.5l0.1,0.2l0.8,1.6l-0.5,1.1l-2,0.7v1.6l0.2,0.1l1.7,0.6l0.5,1.1L37,30.5l1.1,1.1l0.2-0.1
		l1.6-0.8l1.1,0.5l0.7,2h1.6l0.1-0.2l0.6-1.7l1.1-0.5l1.9,0.9l1.1-1.1l-0.1-0.2l-0.8-1.6l0.5-1.1L49.8,26.7z M42.6,28.4
		c-1.3,0-2.4-1.1-2.4-2.4c0-1.3,1.1-2.4,2.4-2.4S45,24.6,45,26C45,27.3,44,28.4,42.6,28.4z"/>
	<path fill="#71AFCF" d="M38.5,15.5v-1.6l-0.2-0.1l-1.7-0.6l-0.5-1.1l0.9-1.9l-1.1-1.1l-0.2,0.1L34,10l-1.1-0.5l-0.7-2h-1.6
		l-0.1,0.2l-0.6,1.7L28.8,10l-1.9-0.9l-1.1,1.1l0.1,0.2l0.8,1.6l-0.5,1.1l-2,0.7v1.6l0.2,0.1l1.7,0.6l0.5,1.1l-0.9,1.9l1.1,1.1
		l0.2-0.1l1.6-0.8l1.1,0.5l0.7,2h1.6l0.1-0.2l0.6-1.7l1.1-0.5l1.9,0.9l1.1-1.1l-0.1-0.2l-0.8-1.6l0.5-1.1L38.5,15.5z M31.4,17.1
		C30,17.1,29,16,29,14.7s1.1-2.4,2.4-2.4c1.3,0,2.4,1.1,2.4,2.4S32.7,17.1,31.4,17.1z"/>
</g>
</svg>
