<?xml version="1.0" encoding="utf-8"?>
<!-- Generator: Adobe Illustrator 18.1.1, SVG Export Plug-In . SVG Version: 6.00 Build 0)  -->
<svg version="1.1" id="Layer_1" xmlns="http://www.w3.org/2000/svg" xmlns:xlink="http://www.w3.org/1999/xlink" x="0px" y="0px"
	 viewBox="198 -1 563 561" enable-background="new 198 -1 563 561" xml:space="preserve">
<g>
	<g>
		<path fill="#81DB0B" d="M480,534.5c-147.6,0-254.5-106.9-254.5-254.5S332.4,25.5,480,25.5S734.5,132.4,734.5,280
			S627.6,534.5,480,534.5z"/>
		<g>
			<path fill="#FFFFFF" d="M480,50.9c132.4,0,229.1,96.7,229.1,229.1S612.4,509.1,480,509.1S250.9,412.4,250.9,280
				S347.6,50.9,480,50.9 M480,0C322.2,0,200,122.2,200,280s122.2,280,280,280s280-122.2,280-280S637.8,0,480,0L480,0z"/>
		</g>
	</g>
	<polygon fill="#FFFFFF" points="347.6,280 347.6,280 383.3,249.5 383.3,249.5 383.3,249.5 449.5,310.5 576.7,183.3 576.7,183.3 
		576.7,183.3 612.4,213.8 612.4,213.8 612.4,213.8 449.5,376.7 	"/>
</g>
</svg>
