<?xml version="1.0" encoding="utf-8"?>
<!-- Generator: Adobe Illustrator 18.1.1, SVG Export Plug-In . SVG Version: 6.00 Build 0)  -->
<svg version="1.1" id="Layer_1" xmlns="http://www.w3.org/2000/svg" xmlns:xlink="http://www.w3.org/1999/xlink" x="0px" y="0px"
	 viewBox="0 0 53.7 56.6" enable-background="new 0 0 53.7 56.6" xml:space="preserve">
<g>
	<path fill="#721A81" d="M7.9,29.5h3.3c0-5.4,4.4-9.8,9.8-9.8s9.8,4.4,9.8,9.8c0,3.3,1.6,6.1,4,7.9c-4.3,2.1-7.3,6.6-7.3,11.7h3.3
		c0-5.4,4.4-9.8,9.8-9.8s9.8,4.4,9.8,9.8h3.3c0-5.1-3-9.6-7.3-11.7c2.4-1.8,4-4.7,4-7.9c0-5.4-4.4-9.8-9.8-9.8c-3.3,0-6.1,1.6-7.9,4
		c-1.3-2.6-3.4-4.7-5.9-5.9c2.4-1.8,4-4.7,4-7.9C30.8,4.4,26.4,0,21,0c-5.4,0-9.8,4.4-9.8,9.8c0,3.3,1.6,6.1,4,7.9
		C10.8,19.9,7.9,24.3,7.9,29.5z M34.1,29.5c0-3.6,2.9-6.6,6.6-6.6c3.6,0,6.6,2.9,6.6,6.6S44.2,36,40.6,36C37,36,34.1,33.1,34.1,29.5
		z M21,16.4c-3.6,0-6.6-2.9-6.6-6.6s2.9-6.6,6.6-6.6s6.6,2.9,6.6,6.6S24.6,16.4,21,16.4z"/>
	<line fill="none" stroke="#721A81" stroke-width="3" stroke-miterlimit="10" x1="0" y1="47.1" x2="21" y2="47.1"/>
	<line fill="none" stroke="#721A81" stroke-width="3" stroke-miterlimit="10" x1="10.5" y1="35.6" x2="10.5" y2="56.6"/>
</g>
</svg>
