<?xml version="1.0" encoding="utf-8"?>
<!-- Generator: Adobe Illustrator 18.1.1, SVG Export Plug-In . SVG Version: 6.00 Build 0)  -->
<svg version="1.1" id="Layer_1" xmlns="http://www.w3.org/2000/svg" xmlns:xlink="http://www.w3.org/1999/xlink" x="0px" y="0px"
	 viewBox="0 0 12 12" enable-background="new 0 0 12 12" xml:space="preserve">
<g>
	<g>
		<path fill="#EC008C" d="M6,11.5C3,11.5,0.5,9,0.5,6C0.5,3,3,0.5,6,0.5S11.5,3,11.5,6C11.5,9,9,11.5,6,11.5z"/>
		<path fill="#FFFFFF" d="M6,1c2.8,0,5,2.2,5,5s-2.2,5-5,5S1,8.8,1,6S3.2,1,6,1 M6,0C2.7,0,0,2.7,0,6c0,3.3,2.7,6,6,6
			c3.3,0,6-2.7,6-6C12,2.7,9.3,0,6,0L6,0z"/>
	</g>
	<g>
		<circle fill="#FFFFFF" cx="6" cy="8.6" r="0.9"/>
		<polygon fill="#FFFFFF" points="6.1,2.9 5.9,2.9 5.2,2.9 5.4,7.2 5.9,7.2 6.1,7.2 6.6,7.2 6.8,2.9 		"/>
	</g>
</g>
</svg>
