<?xml version="1.0" encoding="utf-8"?>
<!-- Generator: Adobe Illustrator 18.1.1, SVG Export Plug-In . SVG Version: 6.00 Build 0)  -->
<svg version="1.1" id="Layer_1" xmlns="http://www.w3.org/2000/svg" xmlns:xlink="http://www.w3.org/1999/xlink" x="0px" y="0px"
	 viewBox="0 0 56.5 52.8" enable-background="new 0 0 56.5 52.8" xml:space="preserve">
<g>
	<path fill="#721A81" d="M10.7,29.5h3.3c0-5.4,4.4-9.8,9.8-9.8s9.8,4.4,9.8,9.8c0,3.3,1.6,6.1,4,7.9c-4.3,2.1-7.3,6.6-7.3,11.7h3.3
		c0-5.4,4.4-9.8,9.8-9.8s9.8,4.4,9.8,9.8h3.3c0-5.1-3-9.6-7.3-11.7c2.4-1.8,4-4.7,4-7.9c0-5.4-4.4-9.8-9.8-9.8c-3.3,0-6.1,1.6-7.9,4
		c-1.3-2.6-3.4-4.7-5.9-5.9c2.4-1.8,4-4.7,4-7.9c0-5.4-4.4-9.8-9.8-9.8c-5.4,0-9.8,4.4-9.8,9.8c0,3.3,1.6,6.1,4,7.9
		C13.6,19.9,10.7,24.3,10.7,29.5z M36.9,29.5c0-3.6,2.9-6.6,6.6-6.6s6.6,2.9,6.6,6.6S47,36,43.4,36S36.9,33.1,36.9,29.5z M23.8,16.4
		c-3.6,0-6.6-2.9-6.6-6.6s2.9-6.6,6.6-6.6s6.6,2.9,6.6,6.6S27.4,16.4,23.8,16.4z"/>
	<polygon fill="#721A81" points="15.1,34.2 13.2,36 19.3,42.1 0,42.1 0,44.8 19.3,44.8 13.2,50.9 15.1,52.8 24.4,43.5 	"/>
</g>
</svg>
