<?xml version="1.0" encoding="utf-8"?>
<!-- Generator: Adobe Illustrator 18.1.1, SVG Export Plug-In . SVG Version: 6.00 Build 0)  -->
<svg version="1.1" id="Layer_1" xmlns="http://www.w3.org/2000/svg" xmlns:xlink="http://www.w3.org/1999/xlink" x="0px" y="0px"
	 viewBox="0 0 14 12.4" enable-background="new 0 0 14 12.4" xml:space="preserve">
<g>
	<g>
		<g>
			<path fill="#FF8C00" d="M1.1,11.9c-0.3,0-0.5-0.2-0.6-0.3c-0.1-0.2-0.1-0.5,0-0.7l3-5.2l2.9-4.9C6.6,0.6,6.8,0.5,7,0.5
				c0.2,0,0.4,0.1,0.5,0.3l5.9,10.1c0.1,0.2,0.2,0.5,0,0.7c-0.1,0.2-0.3,0.3-0.6,0.3H1.1z"/>
			<path fill="#FFFFFF" d="M7,1C7,1,7.1,1,7,1l3,5.1l2.9,5c0,0.1,0,0.1,0,0.2c0,0-0.1,0-0.1,0H7H1.1c-0.1,0-0.1,0-0.1-0.1
				c0,0,0-0.1,0-0.2L4,6l2.9-4.9C7,1.1,7,1,7,1 M7,0C6.7,0,6.3,0.2,6.1,0.6L3.1,5.5l-3,5.2c-0.5,0.8,0,1.7,1,1.7H7h5.9
				c1,0,1.4-1,1-1.7l-2.9-5l-3-5.1C7.7,0.2,7.4,0,7,0L7,0z"/>
		</g>
	</g>
	<g>
		<circle fill="#FFFFFF" cx="6.9" cy="9.7" r="1"/>
		<polygon fill="#FFFFFF" points="7.1,4 6.9,4 6.1,4 6.4,8.2 6.9,8.2 7.1,8.2 7.6,8.2 7.9,4 		"/>
	</g>
</g>
</svg>
