<?xml version="1.0" encoding="utf-8"?>
<!-- Generator: Adobe Illustrator 18.1.1, SVG Export Plug-In . SVG Version: 6.00 Build 0)  -->
<svg version="1.1" id="Layer_1" xmlns="http://www.w3.org/2000/svg" xmlns:xlink="http://www.w3.org/1999/xlink" x="0px" y="0px"
	 viewBox="0 0 40 40" enable-background="new 0 0 40 40" xml:space="preserve">
<path fill="#707070" d="M14.3,12.9c0,3,1.1,5.8,2.8,8L0.4,37.6c-0.3,0.3-0.4,0.6-0.4,1c0,0.4,0.1,0.7,0.4,1c0.6,0.6,1.5,0.6,2,0
	l16.7-16.7c2.2,1.8,5,2.8,8,2.8c7.1,0,12.9-5.8,12.9-12.9C40,5.8,34.2,0,27.1,0C20.1,0,14.3,5.8,14.3,12.9z M37.1,12.9
	c0,5.5-4.5,10-10,10c-5.5,0-10-4.5-10-10c0-5.5,4.5-10,10-10C32.7,2.9,37.1,7.3,37.1,12.9z"/>
</svg>
